<svg id="レイヤー_1" data-name="レイヤー 1" xmlns="http://www.w3.org/2000/svg" viewBox="0 0 77 77"><defs><style>.cls-1{fill:#f9c55f;}.cls-2{font-size:5.61px;font-family:HiraKakuStd-W8-83pv-RKSJ-H, Hiragino Kaku Gothic Std;}</style></defs><circle class="cls-1" cx="38.5" cy="38.5" r="38.5"/><path d="M74.15,24.47h-4A1.87,1.87,0,0,0,68.34,26l-.91,5.16H32.26a1.85,1.85,0,1,0,0,3.7H66.78l-3,16.71c-.48,2.21-1.76,4.82-5.12,4.82H36.47c-1.95,0-3.41-.35-4.53-4.91a.24.24,0,0,0,0-.08L26.57,33.25a1.85,1.85,0,1,0-3.55,1l5.34,18.11c.94,3.8,2.64,7.68,8.11,7.68H58.71c4.43,0,7.7-2.91,8.75-7.78,0,0,0,0,0-.07l4.25-24.07h2.43a1.85,1.85,0,0,0,0-3.7Z" transform="translate(-10 -11)"/><path d="M40.53,38.31a1.85,1.85,0,0,0-1.85,1.86V42a1.85,1.85,0,0,0,3.7,0v-1.8A1.85,1.85,0,0,0,40.53,38.31Z" transform="translate(-10 -11)"/><path d="M55,38.31a1.85,1.85,0,0,0-1.85,1.86V42a1.85,1.85,0,0,0,3.7,0v-1.8A1.85,1.85,0,0,0,55,38.31Z" transform="translate(-10 -11)"/><path d="M52.3,46.67a1.84,1.84,0,0,0-2.55.56,2.74,2.74,0,0,1-2,1.16,2.63,2.63,0,0,1-2-1.15,1.85,1.85,0,0,0-3.13,2,6.28,6.28,0,0,0,5.1,2.88,6.39,6.39,0,0,0,5.13-2.86A1.84,1.84,0,0,0,52.3,46.67Z" transform="translate(-10 -11)"/><path d="M36.65,62.4A5.56,5.56,0,1,0,42.2,68,5.56,5.56,0,0,0,36.65,62.4Zm0,7.41A1.86,1.86,0,1,1,38.5,68,1.85,1.85,0,0,1,36.65,69.81Z" transform="translate(-10 -11)"/><path d="M58.86,62.4A5.56,5.56,0,1,0,64.41,68,5.56,5.56,0,0,0,58.86,62.4Zm0,7.41A1.86,1.86,0,1,1,60.71,68,1.85,1.85,0,0,1,58.86,69.81Z" transform="translate(-10 -11)"/><text class="cls-2" transform="translate(19.75 69.05)">カートに入れる</text></svg>